<svg width="32" height="32" viewBox="0 0 32 32" fill="none" xmlns="http://www.w3.org/2000/svg">
<circle cx="16" cy="16" r="16" fill="url(#paint0_linear_6275_34779)"/>
<path d="M18.4001 16.0001C18.4001 17.3255 17.3255 18.4001 16.0001 18.4001C14.6747 18.4001 13.6001 17.3255 13.6001 16.0001C13.6001 14.6747 14.6747 13.6001 16.0001 13.6001C17.3255 13.6001 18.4001 14.6747 18.4001 16.0001Z" fill="white"/>
<path d="M19.5766 9.6001H12.4236C10.8666 9.6001 9.6001 10.8666 9.6001 12.4236V19.5766C9.6001 21.1336 10.8666 22.4001 12.4236 22.4001H19.5766C21.1336 22.4001 22.4001 21.1336 22.4001 19.5766V12.4236C22.4001 10.8666 21.1336 9.6001 19.5766 9.6001ZM16.0001 19.5295C14.054 19.5295 12.4707 17.9462 12.4707 16.0001C12.4707 14.054 14.054 12.4707 16.0001 12.4707C17.9462 12.4707 19.5295 14.054 19.5295 16.0001C19.5295 17.9462 17.9462 19.5295 16.0001 19.5295ZM20.0472 12.6589C19.6573 12.6589 19.3413 12.3429 19.3413 11.953C19.3413 11.5631 19.6573 11.2472 20.0472 11.2472C20.437 11.2472 20.753 11.5631 20.753 11.953C20.753 12.3429 20.437 12.6589 20.0472 12.6589Z" fill="white"/>
<defs>
<linearGradient id="paint0_linear_6275_34779" x1="2.14853" y1="29.9152" x2="31.7987" y2="4.24828" gradientUnits="userSpaceOnUse">
<stop stop-color="#FFDD55"/>
<stop offset="0.5" stop-color="#FF543E"/>
<stop offset="1" stop-color="#C837AB"/>
</linearGradient>
</defs>
</svg>
