<svg width="32" height="32" viewBox="0 0 32 32" fill="none" xmlns="http://www.w3.org/2000/svg">
<circle cx="16" cy="16" r="16" fill="#25D366"/>
<path d="M16.0017 9.6001H15.9985C12.4697 9.6001 9.6001 12.4705 9.6001 16.0001C9.6001 17.4001 10.0513 18.6977 10.8185 19.7513L10.0209 22.1289L12.4809 21.3425C13.4929 22.0129 14.7001 22.4001 16.0017 22.4001C19.5305 22.4001 22.4001 19.5289 22.4001 16.0001C22.4001 12.4713 19.5305 9.6001 16.0017 9.6001ZM19.7257 18.6377C19.5713 19.0737 18.9585 19.4353 18.4697 19.5409C18.1353 19.6121 17.6985 19.6689 16.2281 19.0593C14.3473 18.2801 13.1361 16.3689 13.0417 16.2449C12.9513 16.1209 12.2817 15.2329 12.2817 14.3145C12.2817 13.3961 12.7481 12.9489 12.9361 12.7569C13.0905 12.5993 13.3457 12.5273 13.5905 12.5273C13.6697 12.5273 13.7409 12.5313 13.8049 12.5345C13.9929 12.5425 14.0873 12.5537 14.2113 12.8505C14.3657 13.2225 14.7417 14.1409 14.7865 14.2353C14.8321 14.3297 14.8777 14.4577 14.8137 14.5817C14.7537 14.7097 14.7009 14.7665 14.6065 14.8753C14.5121 14.9841 14.4225 15.0673 14.3281 15.1841C14.2417 15.2857 14.1441 15.3945 14.2529 15.5825C14.3617 15.7665 14.7377 16.3801 15.2913 16.8729C16.0057 17.5089 16.5849 17.7121 16.7921 17.7985C16.9465 17.8625 17.1305 17.8473 17.2433 17.7273C17.3865 17.5729 17.5633 17.3169 17.7433 17.0649C17.8713 16.8841 18.0329 16.8617 18.2025 16.9257C18.3753 16.9857 19.2897 17.4377 19.4777 17.5313C19.6657 17.6257 19.7897 17.6705 19.8353 17.7497C19.8801 17.8289 19.8801 18.2009 19.7257 18.6377Z" fill="white"/>
</svg>
