<svg width="32" height="32" viewBox="0 0 32 32" fill="none" xmlns="http://www.w3.org/2000/svg">
<circle cx="16" cy="16" r="16" fill="#F52929"/>
<path d="M16.0005 9.6001C16.0413 9.60045 19.4757 9.63072 21.7603 9.8042C22.0725 9.83326 22.7818 9.83315 23.4058 10.5601C23.8851 11.1094 24.056 12.3486 24.0581 12.3638C24.0581 12.3638 24.228 13.848 24.228 15.3315V16.6987C24.228 18.1445 24.0601 19.619 24.0581 19.6362C24.0581 19.6362 23.888 20.8872 23.4058 21.4399C22.7817 22.1379 22.0725 22.1677 21.7603 22.1968C19.4757 22.3992 16.0414 22.3999 16.0005 22.3999C16.0005 22.3999 11.7158 22.3705 10.4106 22.2251C10.0418 22.1378 9.21846 22.1672 8.59424 21.4399C8.11208 20.8871 7.94189 19.6362 7.94189 19.6362C7.93954 19.6161 7.772 18.1718 7.77197 16.6987V15.3315C7.77197 13.8479 7.94189 12.3638 7.94189 12.3638C7.94346 12.3501 8.08637 11.1098 8.59424 10.5601C9.21846 9.86191 9.92863 9.8333 10.2407 9.8042C12.539 9.6297 16.0005 9.6001 16.0005 9.6001ZM14.0142 19.3745L19.4048 16.2915L14.0142 13.062V19.3745Z" fill="white"/>
</svg>
