<svg width="80" height="80" viewBox="0 0 80 80" fill="none" xmlns="http://www.w3.org/2000/svg">
<g filter="url(#filter0_dd_6275_34910)">
<path d="M12 18C12 9.16344 19.1634 2 28 2H52C60.8366 2 68 9.16344 68 18V42C68 50.8366 60.8366 58 52 58H28C19.1634 58 12 50.8366 12 42V18Z" fill="url(#paint0_linear_6275_34910)" shape-rendering="crispEdges"/>
<path d="M38.8333 38.1667C43.988 38.1667 48.1667 33.988 48.1667 28.8333C48.1667 23.6787 43.988 19.5 38.8333 19.5C33.6787 19.5 29.5 23.6787 29.5 28.8333C29.5 33.988 33.6787 38.1667 38.8333 38.1667Z" stroke="white" stroke-width="2.33333" stroke-linecap="round" stroke-linejoin="round"/>
<path d="M50.5001 40.5001L45.4834 35.4834" stroke="white" stroke-width="2.33333" stroke-linecap="round" stroke-linejoin="round"/>
</g>
<defs>
<filter id="filter0_dd_6275_34910" x="0" y="0" width="80" height="80" filterUnits="userSpaceOnUse" color-interpolation-filters="sRGB">
<feFlood flood-opacity="0" result="BackgroundImageFix"/>
<feColorMatrix in="SourceAlpha" type="matrix" values="0 0 0 0 0 0 0 0 0 0 0 0 0 0 0 0 0 0 127 0" result="hardAlpha"/>
<feMorphology radius="4" operator="erode" in="SourceAlpha" result="effect1_dropShadow_6275_34910"/>
<feOffset dy="4"/>
<feGaussianBlur stdDeviation="3"/>
<feComposite in2="hardAlpha" operator="out"/>
<feColorMatrix type="matrix" values="0 0 0 0 0 0 0 0 0 0.649764 0 0 0 0 0.957131 0 0 0 0.3 0"/>
<feBlend mode="normal" in2="BackgroundImageFix" result="effect1_dropShadow_6275_34910"/>
<feColorMatrix in="SourceAlpha" type="matrix" values="0 0 0 0 0 0 0 0 0 0 0 0 0 0 0 0 0 0 127 0" result="hardAlpha"/>
<feMorphology radius="3" operator="erode" in="SourceAlpha" result="effect2_dropShadow_6275_34910"/>
<feOffset dy="10"/>
<feGaussianBlur stdDeviation="7.5"/>
<feComposite in2="hardAlpha" operator="out"/>
<feColorMatrix type="matrix" values="0 0 0 0 0 0 0 0 0 0.649764 0 0 0 0 0.957131 0 0 0 0.3 0"/>
<feBlend mode="normal" in2="effect1_dropShadow_6275_34910" result="effect2_dropShadow_6275_34910"/>
<feBlend mode="normal" in="SourceGraphic" in2="effect2_dropShadow_6275_34910" result="shape"/>
</filter>
<linearGradient id="paint0_linear_6275_34910" x1="12" y1="2" x2="68" y2="58" gradientUnits="userSpaceOnUse">
<stop stop-color="#00BCFF"/>
<stop offset="1" stop-color="#155DFC"/>
</linearGradient>
</defs>
</svg>
