<svg width="80" height="80" viewBox="0 0 80 80" fill="none" xmlns="http://www.w3.org/2000/svg">
<g filter="url(#filter0_dd_6275_34930)">
<path d="M12 18C12 9.16344 19.1634 2 28 2H52C60.8366 2 68 9.16344 68 18V42C68 50.8366 60.8366 58 52 58H28C19.1634 58 12 50.8366 12 42V18Z" fill="url(#paint0_linear_6275_34930)" shape-rendering="crispEdges"/>
<path d="M44.6666 40.5V38.1667C44.6666 36.929 44.1749 35.742 43.2998 34.8668C42.4246 33.9917 41.2376 33.5 39.9999 33.5H32.9999C31.7622 33.5 30.5753 33.9917 29.7001 34.8668C28.8249 35.742 28.3333 36.929 28.3333 38.1667V40.5" stroke="white" stroke-width="2.33333" stroke-linecap="round" stroke-linejoin="round"/>
<path d="M36.4999 28.8333C39.0772 28.8333 41.1666 26.744 41.1666 24.1667C41.1666 21.5893 39.0772 19.5 36.4999 19.5C33.9226 19.5 31.8333 21.5893 31.8333 24.1667C31.8333 26.744 33.9226 28.8333 36.4999 28.8333Z" stroke="white" stroke-width="2.33333" stroke-linecap="round" stroke-linejoin="round"/>
<path d="M51.6667 40.4999V38.1666C51.666 37.1326 51.3218 36.1282 50.6883 35.311C50.0549 34.4938 49.1679 33.9101 48.1667 33.6516" stroke="white" stroke-width="2.33333" stroke-linecap="round" stroke-linejoin="round"/>
<path d="M44.6667 19.6516C45.6706 19.9086 46.5603 20.4924 47.1957 21.311C47.831 22.1295 48.1759 23.1362 48.1759 24.1724C48.1759 25.2086 47.831 26.2154 47.1957 27.0339C46.5603 27.8525 45.6706 28.4363 44.6667 28.6933" stroke="white" stroke-width="2.33333" stroke-linecap="round" stroke-linejoin="round"/>
</g>
<defs>
<filter id="filter0_dd_6275_34930" x="0" y="0" width="80" height="80" filterUnits="userSpaceOnUse" color-interpolation-filters="sRGB">
<feFlood flood-opacity="0" result="BackgroundImageFix"/>
<feColorMatrix in="SourceAlpha" type="matrix" values="0 0 0 0 0 0 0 0 0 0 0 0 0 0 0 0 0 0 127 0" result="hardAlpha"/>
<feMorphology radius="4" operator="erode" in="SourceAlpha" result="effect1_dropShadow_6275_34930"/>
<feOffset dy="4"/>
<feGaussianBlur stdDeviation="3"/>
<feComposite in2="hardAlpha" operator="out"/>
<feColorMatrix type="matrix" values="0 0 0 0 0 0 0 0 0 0.649764 0 0 0 0 0.957131 0 0 0 0.3 0"/>
<feBlend mode="normal" in2="BackgroundImageFix" result="effect1_dropShadow_6275_34930"/>
<feColorMatrix in="SourceAlpha" type="matrix" values="0 0 0 0 0 0 0 0 0 0 0 0 0 0 0 0 0 0 127 0" result="hardAlpha"/>
<feMorphology radius="3" operator="erode" in="SourceAlpha" result="effect2_dropShadow_6275_34930"/>
<feOffset dy="10"/>
<feGaussianBlur stdDeviation="7.5"/>
<feComposite in2="hardAlpha" operator="out"/>
<feColorMatrix type="matrix" values="0 0 0 0 0 0 0 0 0 0.649764 0 0 0 0 0.957131 0 0 0 0.3 0"/>
<feBlend mode="normal" in2="effect1_dropShadow_6275_34930" result="effect2_dropShadow_6275_34930"/>
<feBlend mode="normal" in="SourceGraphic" in2="effect2_dropShadow_6275_34930" result="shape"/>
</filter>
<linearGradient id="paint0_linear_6275_34930" x1="12" y1="2" x2="68" y2="58" gradientUnits="userSpaceOnUse">
<stop stop-color="#00BCFF"/>
<stop offset="1" stop-color="#155DFC"/>
</linearGradient>
</defs>
</svg>
