<svg width="14" height="14" viewBox="0 0 14 14" fill="none" xmlns="http://www.w3.org/2000/svg">
<path d="M12.7496 9.73431V11.5408C12.7503 11.7085 12.7159 11.8745 12.6486 12.0281C12.5813 12.1818 12.4825 12.3197 12.3587 12.4331C12.2349 12.5465 12.0887 12.6328 11.9295 12.6865C11.7703 12.7403 11.6017 12.7602 11.4343 12.7451C9.57768 12.5438 7.79426 11.9106 6.22734 10.8965C4.76953 9.97196 3.53356 8.73843 2.6072 7.28351C1.58752 5.71259 0.952945 3.92405 0.754897 2.06277C0.73982 1.89625 0.759649 1.72843 0.813121 1.56998C0.866594 1.41153 0.952539 1.26592 1.06548 1.14244C1.17843 1.01896 1.3159 0.920295 1.46915 0.85274C1.62239 0.785185 1.78805 0.750216 1.95558 0.750058H3.76565C4.05846 0.747182 4.34233 0.850667 4.56435 1.04122C4.78636 1.23178 4.93138 1.49641 4.97236 1.78578C5.04876 2.36389 5.19044 2.93152 5.39471 3.47785C5.47589 3.69338 5.49346 3.92761 5.44534 4.1528C5.39721 4.37799 5.28542 4.58469 5.1232 4.74841L4.35694 5.51315C5.21585 7.02069 6.46655 8.26891 7.97708 9.12612L8.74334 8.36138C8.90739 8.19948 9.1145 8.08791 9.34013 8.03988C9.56577 7.99185 9.80047 8.00939 10.0164 8.0904C10.5638 8.29427 11.1326 8.43567 11.7119 8.51192C12.0049 8.55318 12.2726 8.70052 12.464 8.9259C12.6553 9.15128 12.757 9.43899 12.7496 9.73431Z" stroke="#078EE6" stroke-width="1.5" stroke-linecap="round" stroke-linejoin="round"/>
</svg>
