<svg width="48" height="48" viewBox="0 0 48 48" fill="none" xmlns="http://www.w3.org/2000/svg">
<path fill-rule="evenodd" clip-rule="evenodd" d="M30.1724 31.7931H35.0345V46.3793H30.1724V31.7931ZM44.7586 40.7138C44.7586 41.7943 46.3793 41.7943 46.3793 40.7138C46.3793 39.6334 44.7586 39.6195 44.7586 40.7138ZM38.2759 18.0242C38.2759 19.0354 39.3148 18.8414 40.2983 18.8414L32.6242 26.5709C31.8485 26.0445 28.5517 22.0828 27.7345 22.0828C27.1665 22.0828 26.4878 22.9694 26.1415 23.3295L23.3018 26.1692C22.9416 26.5293 22.0551 27.1942 22.0551 27.7622C22.0551 28.247 22.3737 28.5794 22.8724 28.5794C23.6897 28.5794 26.557 24.9086 27.7345 24.1191C28.9119 24.9086 31.7793 28.5794 32.5965 28.5794C33.1368 28.5794 33.5246 28.0115 33.8432 27.6929C34.9098 26.6263 41.0463 20.379 41.5172 20.0743C41.5172 21.0578 41.3095 22.0967 42.3345 22.0967C42.8193 22.0967 43.1518 21.7781 43.1518 21.2794V18.038C43.1518 17.5532 42.8332 17.2207 42.3345 17.2207H39.0931C38.5945 17.2069 38.2759 17.5255 38.2759 18.0242ZM7.10875 31.0035C6.13911 30.3525 4.62924 27.6236 4.14442 26.5293C3.43796 24.9086 2.73151 22.7616 2.73151 20.4483H17.6225L7.10875 31.0035ZM18.8276 2.71765V18.8276H2.71765C2.71765 16.2373 3.75656 13.1621 4.98939 11.0704C7.82906 6.27763 13.3422 2.71765 18.8276 2.71765ZM1 18.9246C1 22.5261 1.26319 23.9251 2.50987 27.0419C3.14707 28.6487 4.55998 30.7681 5.7374 32.1117C7.10875 33.677 8.60478 34.7574 10.3363 35.8102C10.9181 36.1565 17.2069 39.2455 17.2069 37.3478C17.2069 35.7548 15.697 36.6275 12.4418 35.0206C11.6799 34.6466 10.9458 34.2449 10.2393 33.7878C9.7822 33.4969 8.54937 32.5688 8.30003 32.181C8.59092 31.7516 13.9378 26.4878 14.4503 25.9752L19.0631 21.3625C19.4371 20.9885 20.4621 20.1989 20.4621 19.6172V2.71765C23.7728 2.71765 27.3743 4.21368 29.8677 6.06985C30.1032 6.24993 30.1447 6.29148 30.3663 6.48541C30.5741 6.66549 30.6572 6.69319 30.865 6.88712C32.2502 8.17536 33.1922 9.21426 34.1895 10.8627C34.9652 12.1648 35.4085 13.176 35.8933 14.6304C36.1426 15.3923 36.1981 15.5724 36.9738 15.5724C37.237 15.5724 37.8187 15.2538 37.5694 14.3811C36.7106 11.3613 34.4666 7.57972 32.0563 5.7097C29.6876 3.88123 30.2001 4.01975 27.1111 2.55143C24.4515 1.27704 22.0274 1 18.9246 1C16.2373 1 13.6192 1.88653 11.7353 2.71765C10.738 3.16092 9.79605 3.75656 8.92337 4.3522C4.43531 7.39965 1 13.3145 1 18.9246ZM20.4483 35.0345H25.3103V46.3793H20.4483V35.0345ZM38.2759 27.7483V46.3793H36.6552V30.9758C36.6552 30.491 36.3366 30.1586 35.8379 30.1586H29.3551C28.8703 30.1586 28.5517 30.4772 28.5517 30.9758V46.3655H26.931V34.2172C26.931 33.7324 26.6124 33.3999 26.1138 33.3999H19.631C19.1462 33.3999 18.8137 33.7185 18.8137 34.2172V46.3655C18.1488 46.3655 17.193 46.2131 17.193 47.1827C17.193 47.6676 17.5116 48 18.0103 48H47.1827C48.2632 48 48.2632 46.3793 47.1827 46.3793H46.3655C46.3655 44.6478 46.6841 43.1379 45.562 43.1379C44.4262 43.1379 44.7448 44.6478 44.7448 46.3793H39.8827V28.5517H44.7448V37.4724C44.7448 38.5529 46.3655 38.5529 46.3655 37.4724V27.7483C46.3655 27.2635 46.0469 26.931 45.562 26.931H39.0793C38.5945 26.931 38.2759 27.2496 38.2759 27.7483Z" fill="black"/>
</svg>
