<svg width="48" height="48" viewBox="0 0 48 48" fill="none" xmlns="http://www.w3.org/2000/svg">
<g clip-path="url(#clip0_6275_34638)">
<path d="M4.38379 34.3144V25.6745C4.38379 24.1499 5.61967 22.9141 7.14421 22.9141H16.3239C17.8484 22.9141 19.0843 24.1499 19.0843 25.6745V34.3144" stroke="#151515" stroke-width="2"/>
<path d="M31.3391 34.1884V41.3457C31.3391 42.8702 32.575 44.1061 34.0995 44.1061H42.1919C43.7164 44.1061 44.9523 42.8702 44.9523 41.3457V34.1884C44.9523 32.6639 43.7164 31.428 42.1919 31.428H34.0995C32.575 31.428 31.3391 32.6639 31.3391 34.1884Z" stroke="#151515" stroke-width="2"/>
<circle cx="11.7332" cy="17.167" r="5.08279" fill="#F6F6F6" stroke="#151515" stroke-width="2"/>
<circle cx="38.1446" cy="26.1063" r="4.63289" fill="#F6F6F6" stroke="#151515" stroke-width="2"/>
<path d="M28.0488 44.3486H48.0004" stroke="#151515" stroke-width="2"/>
<path d="M31.7104 34.325H2.65057C1.1867 34.325 0 35.5117 0 36.9755C0 38.4394 1.1867 39.6261 2.65057 39.6261H31.7104" stroke="#151515" stroke-width="2"/>
<path d="M24.3731 17.9396H24.8776C25.511 17.9396 26.0245 18.453 26.0245 19.0864C26.0245 20.0368 27.1142 20.5747 27.8687 19.9968L29.9051 18.437C30.3263 18.1144 30.842 17.9396 31.3726 17.9396H36.4424C37.6889 17.9396 38.7808 17.1042 39.1068 15.9011L41.6589 6.48237C42.1345 4.72739 40.8129 3 38.9946 3H22.4715C20.6326 3 19.3078 4.76412 19.8205 6.53006L22.7872 16.7486C22.992 17.4542 23.6384 17.9396 24.3731 17.9396Z" stroke="#151515" stroke-width="2"/>
<path d="M24.7715 7.43359H31.1328" stroke="#151515" stroke-width="2"/>
<path d="M24.7715 12.0681H36.1448" stroke="#151515" stroke-width="2"/>
</g>
<defs>
<clipPath id="clip0_6275_34638">
<rect width="48" height="48" fill="white"/>
</clipPath>
</defs>
</svg>
