<svg width="44" height="38" viewBox="0 0 44 38" fill="none" xmlns="http://www.w3.org/2000/svg">
<path d="M8.19238 16.1309C5.11627 16.131 2.52832 18.5864 2.52832 21.7256V25.8154C2.52832 26.6455 3.21172 27.3193 4.05078 27.3193C4.73529 27.3195 5.28906 27.8685 5.28906 28.543V35.501H11.0957V20.3613C11.096 19.5108 11.9479 18.9371 12.7324 19.2031L12.8887 19.2676L12.8896 19.2686L12.8916 19.2695C12.8932 19.2703 12.8956 19.2711 12.8984 19.2725C12.9052 19.2758 12.9155 19.2816 12.9287 19.2881C12.9553 19.3012 12.9951 19.3206 13.0459 19.3457C13.1475 19.3958 13.2955 19.4683 13.4805 19.5596C13.8508 19.7423 14.3699 19.9989 14.9658 20.293C16.1577 20.8812 17.6562 21.6211 18.8818 22.2266C19.142 22.3548 19.4463 22.3655 19.7168 22.2568H19.7178C19.9737 22.1528 20.1825 21.9384 20.2754 21.6826L20.2764 21.6807C20.2791 21.6721 20.282 21.6632 20.2852 21.6543V21.6533C20.4222 21.2671 20.2451 20.8392 19.874 20.6572C19.0596 20.2567 17.0538 19.2717 15.252 18.3867C14.351 17.9442 13.5008 17.5266 12.876 17.2197C12.5637 17.0663 12.3078 16.9399 12.1299 16.8525C12.0409 16.8088 11.971 16.7751 11.9238 16.752C11.9003 16.7404 11.8822 16.7315 11.8701 16.7256C11.8641 16.7226 11.8595 16.7203 11.8564 16.7188C11.8551 16.7181 11.8543 16.7172 11.8535 16.7168H11.8516C11.0737 16.3333 10.2035 16.1309 9.33203 16.1309H8.19238ZM20.6191 2.49609C19.7801 2.49618 19.0967 3.17029 19.0967 4V17.543L19.125 17.5566C19.7584 17.8675 20.3499 18.1579 20.8584 18.4082L20.9023 18.4297L20.9248 18.3857L23.6533 12.9971C23.9595 12.3933 24.7043 12.148 25.3164 12.4502C25.9284 12.7526 26.1754 13.4872 25.8701 14.0908L22.6709 20.4092L22.6611 20.4277L22.668 20.4482C22.6686 20.4501 22.6699 20.4525 22.6709 20.4561C22.6718 20.4591 22.6733 20.4633 22.6748 20.4678L22.6855 20.502H39.9492C40.3506 20.502 40.7433 20.3423 41.0264 20.0625C41.3138 19.7787 41.4717 19.4003 41.4717 18.998V4C41.4717 3.59774 41.3135 3.21972 41.0264 2.93652C40.743 2.65614 40.3505 2.49609 39.9492 2.49609H20.6191ZM8.19238 6.58594C6.21172 6.58605 4.59961 8.17795 4.59961 10.1357C4.59968 12.0932 6.21177 13.6845 8.19238 13.6846C10.1734 13.6846 11.7861 12.0932 11.7861 10.1357C11.7861 8.17787 10.1735 6.58594 8.19238 6.58594ZM2.81152 29.5723L2.77734 29.5605C1.19319 29.0343 0.0498047 27.5538 0.0498047 25.8154V21.7256C0.0498047 18.575 1.84222 16.0308 4.18945 14.7266L4.25195 14.6914L4.19824 14.6445C2.92644 13.5447 2.12113 11.9316 2.12109 10.1357C2.12109 6.83071 4.84465 4.14062 8.19336 4.14062C11.5415 4.14085 14.2646 6.83085 14.2646 10.1357C14.2646 11.7414 13.6203 13.2009 12.5752 14.2783L12.5244 14.3301L12.5908 14.3594C12.7142 14.4124 12.8368 14.4682 12.957 14.5273H12.958L16.5469 16.29L16.6191 16.3252V4C16.6191 1.82278 18.4129 0.0498864 20.6191 0.0498047H39.9492C42.113 0.0498047 43.9502 1.77343 43.9502 4V18.998C43.9502 21.2243 42.113 22.9482 39.9492 22.9482H33.3848L33.4102 23.0156L38.3516 36.3018C38.5874 36.9353 38.2576 37.6381 37.6152 37.8711C36.867 38.1424 36.2171 37.6626 36.0244 37.1455L30.7568 22.9805L30.7451 22.9482H29.7715L29.7598 22.9805L24.5449 37.1416C24.3454 37.6824 23.6913 38.1369 22.957 37.873C22.3138 37.6423 21.9823 36.9398 22.2158 36.3057L27.1104 23.0156L27.1348 22.9482H22.4121L22.3975 22.9746C21.4428 24.7234 19.3304 25.1832 17.7725 24.4141L13.6455 22.376L13.5742 22.3408V36.7236C13.5742 37.3981 13.0198 37.9462 12.335 37.9463H4.05078C3.36582 37.9463 2.81154 37.3982 2.81152 36.7236V29.5723Z" fill="#232426" stroke="#F6F6F6" stroke-width="0.1"/>
</svg>
