<svg width="14" height="14" viewBox="0 0 14 14" fill="none" xmlns="http://www.w3.org/2000/svg">
<path d="M13.9373 11.1595L13.8674 10.9469C13.7033 10.4578 13.1625 9.94741 12.6643 9.81067L10.8249 9.30788C10.3267 9.17271 9.61578 9.35498 9.24977 9.72104L8.58444 10.3864C6.16623 9.73169 4.26905 7.8345 3.61586 5.4163L4.2812 4.75096C4.64575 4.38641 4.82803 3.67553 4.69285 3.1758L4.19152 1.33631C4.05634 0.838088 3.5429 0.297334 3.05382 0.133285L2.84418 0.0633874C2.35354 -0.100662 1.6533 0.0648943 1.28875 0.431003L0.292302 1.42745C0.114595 1.60365 0.000659528 2.11101 0.000659528 2.11101C-0.0327822 5.27354 1.20675 8.31907 3.44268 10.5565C5.67253 12.7864 8.70746 14.0244 11.8593 13.997C11.876 13.997 12.397 13.8861 12.5747 13.7083L13.5712 12.7119C13.9357 12.3488 14.0997 11.6486 13.9373 11.1595Z" fill="#9EA0A5"/>
</svg>
