<svg width="16" height="16" viewBox="0 0 16 16" fill="none" xmlns="http://www.w3.org/2000/svg">
<path d="M1.5836e-07 2.4L5.6 0L10.4 2.4L15.4424 0.2392C15.5033 0.213107 15.5697 0.202535 15.6356 0.208434C15.7016 0.214333 15.7651 0.236517 15.8203 0.272996C15.8756 0.309475 15.921 0.359107 15.9523 0.417438C15.9837 0.475769 16.0001 0.540974 16 0.6072V13.6L10.4 16L5.6 13.6L0.5576 15.7608C0.496731 15.7869 0.430336 15.7975 0.364373 15.7916C0.29841 15.7857 0.234943 15.7635 0.17967 15.727C0.124396 15.6905 0.0790446 15.6409 0.0476856 15.5826C0.0163266 15.5242 -5.8765e-05 15.459 1.5836e-07 15.3928V2.4ZM10.4 14.2112V4.1408L10.348 4.1632L5.6 1.7888V11.8592L5.652 11.8368L10.4 14.2112Z" fill="#9EA0A5"/>
</svg>
