<svg width="12" height="14" viewBox="0 0 12 14" fill="none" xmlns="http://www.w3.org/2000/svg">
<path d="M6 7C5.35714 7 4.79464 6.86328 4.25893 6.53516C3.72321 6.23438 3.32143 5.82422 3.02679 5.27734C2.70536 4.73047 2.57143 4.15625 2.57143 3.5C2.57143 2.87109 2.70536 2.29688 3.02679 1.75C3.32143 1.20312 3.72321 0.792969 4.25893 0.464844C4.79464 0.164062 5.35714 0 6 0C6.61607 0 7.17857 0.164062 7.71429 0.464844C8.25 0.792969 8.65179 1.20312 8.97321 1.75C9.26786 2.29688 9.42857 2.87109 9.42857 3.5C9.42857 4.15625 9.26786 4.73047 8.97321 5.27734C8.65179 5.82422 8.25 6.23438 7.71429 6.53516C7.17857 6.86328 6.61607 7 6 7ZM8.41071 7.875C9.05357 7.875 9.64286 8.03906 10.2054 8.36719C10.7411 8.69531 11.1964 9.16016 11.5179 9.70703C11.8393 10.2812 12 10.8828 12 11.5391V12.6875C12 13.0703 11.8661 13.3711 11.625 13.6172C11.3571 13.8906 11.0625 14 10.7143 14H1.28571C0.910714 14 0.616071 13.8906 0.375 13.6172C0.107143 13.3711 0 13.0703 0 12.6875V11.5391C0 10.8828 0.160714 10.2812 0.482143 9.70703C0.803571 9.16016 1.23214 8.69531 1.79464 8.36719C2.33036 8.03906 2.94643 7.875 3.58929 7.875H4.04464C4.66071 8.17578 5.30357 8.3125 6 8.3125C6.66964 8.3125 7.3125 8.17578 7.95536 7.875H8.41071Z" fill="#9EA0A5"/>
</svg>
