<svg width="194" height="34" viewBox="0 0 194 34" fill="none" xmlns="http://www.w3.org/2000/svg">
<path d="M0 5.95958V0H23.6786V5.95958H15.4842V27.2438H8.19438V5.95958H0Z" fill="#151515"/>
<path d="M33.3961 27.6163C31.2145 27.6163 29.3344 27.1995 27.7558 26.3658C26.1861 25.5233 24.9756 24.3172 24.1242 22.7475C23.2817 21.1689 22.8604 19.28 22.8604 17.0806C22.8604 14.9699 23.2861 13.1253 24.1375 11.5467C24.9889 9.96811 26.1905 8.73983 27.7425 7.86186C29.2944 6.98388 31.1258 6.5449 33.2364 6.5449C34.7795 6.5449 36.1763 6.78435 37.4267 7.26324C38.6772 7.74213 39.7458 8.4383 40.6327 9.35175C41.5195 10.2563 42.2024 11.356 42.6813 12.6508C43.1602 13.9456 43.3996 15.4045 43.3996 17.0274V18.7301H25.1485V14.6861H36.6419C36.633 14.1008 36.4823 13.5864 36.1896 13.143C35.9058 12.6907 35.52 12.3404 35.0323 12.0921C34.5534 11.8349 34.008 11.7063 33.3961 11.7063C32.8019 11.7063 32.2565 11.8349 31.7599 12.0921C31.2632 12.3404 30.8642 12.6863 30.5626 13.1297C30.27 13.5731 30.1148 14.0919 30.097 14.6861V19.0494C30.097 19.7056 30.2345 20.291 30.5094 20.8053C30.7843 21.3197 31.179 21.7232 31.6933 22.0159C32.2077 22.3085 32.8285 22.4548 33.5557 22.4548C34.0612 22.4548 34.5224 22.3839 34.9392 22.242C35.3649 22.1001 35.7285 21.8961 36.03 21.6301C36.3315 21.3552 36.5532 21.027 36.6951 20.6457H43.3996C43.169 22.0646 42.6236 23.2973 41.7634 24.3438C40.9032 25.3814 39.7636 26.1885 38.3446 26.7649C36.9346 27.3325 35.285 27.6163 33.3961 27.6163Z" fill="#151515"/>
<path d="M53.739 15.7503V27.2438H46.396V6.81095H53.3665V10.6953H53.5794C54.0228 9.40053 54.8032 8.3851 55.9206 7.64902C57.0469 6.91294 58.3594 6.5449 59.8582 6.5449C61.3037 6.5449 62.5586 6.87746 63.6228 7.54259C64.6959 8.19886 65.5251 9.10344 66.1104 10.2563C66.7046 11.4092 66.9972 12.7262 66.9884 14.2072V27.2438H59.6453V15.7503C59.6542 14.7393 59.397 13.9456 58.8738 13.3691C58.3594 12.7927 57.6411 12.5045 56.7188 12.5045C56.1157 12.5045 55.5881 12.6375 55.1358 12.9036C54.6924 13.1607 54.3509 13.5332 54.1115 14.021C53.872 14.4999 53.7479 15.0763 53.739 15.7503Z" fill="#151515"/>
<path d="M78.0095 27.5098C76.5551 27.5098 75.216 27.1285 73.9921 26.3658C72.7772 25.6031 71.8017 24.4458 71.0656 22.8938C70.3384 21.3419 69.9748 19.3864 69.9748 17.0274C69.9748 14.562 70.3561 12.5577 71.1188 11.0146C71.8904 9.47148 72.8836 8.34075 74.0986 7.62241C75.3224 6.90407 76.6083 6.5449 77.9563 6.5449C78.9673 6.5449 79.8541 6.72227 80.6168 7.077C81.3795 7.42287 82.018 7.88846 82.5324 8.47378C83.0468 9.05023 83.437 9.68432 83.703 10.3761H83.8094V0H91.1525V27.2438H83.8626V23.8915H83.703C83.4192 24.5833 83.0113 25.2041 82.4792 25.7539C81.956 26.2949 81.3174 26.725 80.5636 27.0443C79.8187 27.3547 78.9673 27.5098 78.0095 27.5098ZM80.7233 21.8695C81.3972 21.8695 81.9737 21.6744 82.4526 21.2842C82.9403 20.8851 83.3128 20.3264 83.57 19.6081C83.836 18.8809 83.9691 18.0206 83.9691 17.0274C83.9691 16.0164 83.836 15.1517 83.57 14.4334C83.3128 13.7061 82.9403 13.1519 82.4526 12.7705C81.9737 12.3803 81.3972 12.1852 80.7233 12.1852C80.0493 12.1852 79.4728 12.3803 78.9939 12.7705C78.5239 13.1519 78.1603 13.7061 77.9031 14.4334C77.6548 15.1517 77.5306 16.0164 77.5306 17.0274C77.5306 18.0384 77.6548 18.9075 77.9031 19.6347C78.1603 20.353 78.5239 20.9073 78.9939 21.2975C79.4728 21.6789 80.0493 21.8695 80.7233 21.8695Z" fill="#151515"/>
<path d="M104.548 27.6163C102.367 27.6163 100.486 27.1995 98.9078 26.3658C97.3381 25.5233 96.1276 24.3172 95.2762 22.7475C94.4337 21.1689 94.0125 19.28 94.0125 17.0806C94.0125 14.9699 94.4382 13.1253 95.2896 11.5467C96.1409 9.96811 97.3426 8.73983 98.8945 7.86186C100.447 6.98388 102.278 6.5449 104.389 6.5449C105.932 6.5449 107.328 6.78435 108.579 7.26324C109.829 7.74213 110.898 8.4383 111.785 9.35175C112.672 10.2563 113.354 11.356 113.833 12.6508C114.312 13.9456 114.552 15.4045 114.552 17.0274V18.7301H96.3005V14.6861H107.794C107.785 14.1008 107.634 13.5864 107.342 13.143C107.058 12.6907 106.672 12.3404 106.184 12.0921C105.705 11.8349 105.16 11.7063 104.548 11.7063C103.954 11.7063 103.409 11.8349 102.912 12.0921C102.415 12.3404 102.016 12.6863 101.715 13.1297C101.422 13.5731 101.267 14.0919 101.249 14.6861V19.0494C101.249 19.7056 101.387 20.291 101.661 20.8053C101.936 21.3197 102.331 21.7232 102.845 22.0159C103.36 22.3085 103.981 22.4548 104.708 22.4548C105.213 22.4548 105.674 22.3839 106.091 22.242C106.517 22.1001 106.881 21.8961 107.182 21.6301C107.484 21.3552 107.705 21.027 107.847 20.6457H114.552C114.321 22.0646 113.776 23.2973 112.915 24.3438C112.055 25.3814 110.916 26.1885 109.497 26.7649C108.087 27.3325 106.437 27.6163 104.548 27.6163Z" fill="#151515"/>
<path d="M117.548 27.2438V6.81095H124.678V10.6953H124.891C125.264 9.25863 125.853 8.20773 126.66 7.54259C127.476 6.87746 128.43 6.5449 129.52 6.5449C129.84 6.5449 130.154 6.5715 130.465 6.62471C130.784 6.66906 131.09 6.73557 131.383 6.82425V13.0898C131.019 12.9656 130.571 12.8725 130.039 12.8104C129.507 12.7484 129.05 12.7173 128.669 12.7173C127.951 12.7173 127.303 12.8814 126.727 13.2095C126.159 13.5288 125.711 13.9811 125.383 14.5664C125.055 15.1428 124.891 15.8213 124.891 16.6017V27.2438H117.548Z" fill="#151515"/>
<path d="M133.684 27.2438V0H141.027V10.3761H141.133C141.4 9.68432 141.79 9.05023 142.304 8.47378C142.818 7.88846 143.457 7.42287 144.22 7.077C144.982 6.72227 145.869 6.5449 146.88 6.5449C148.228 6.5449 149.51 6.90407 150.725 7.62241C151.948 8.34075 152.942 9.47148 153.704 11.0146C154.476 12.5577 154.862 14.562 154.862 17.0274C154.862 19.3864 154.494 21.3419 153.758 22.8938C153.03 24.4458 152.055 25.6031 150.831 26.3658C149.616 27.1285 148.281 27.5098 146.827 27.5098C145.869 27.5098 145.013 27.3547 144.26 27.0443C143.515 26.725 142.876 26.2949 142.344 25.7539C141.821 25.2041 141.417 24.5833 141.133 23.8915H140.974V27.2438H133.684ZM140.867 17.0274C140.867 18.0206 140.996 18.8809 141.253 19.6081C141.519 20.3264 141.892 20.8851 142.371 21.2842C142.858 21.6744 143.439 21.8695 144.113 21.8695C144.787 21.8695 145.359 21.6789 145.829 21.2975C146.308 20.9073 146.672 20.353 146.92 19.6347C147.177 18.9075 147.306 18.0384 147.306 17.0274C147.306 16.0164 147.177 15.1517 146.92 14.4334C146.672 13.7061 146.308 13.1519 145.829 12.7705C145.359 12.3803 144.787 12.1852 144.113 12.1852C143.439 12.1852 142.858 12.3803 142.371 12.7705C141.892 13.1519 141.519 13.7061 141.253 14.4334C140.996 15.1517 140.867 16.0164 140.867 17.0274Z" fill="#151515"/>
<path d="M167.779 27.6163C165.561 27.6163 163.664 27.1773 162.085 26.2993C160.506 25.4125 159.296 24.1798 158.453 22.6012C157.611 21.0137 157.19 19.1735 157.19 17.0806C157.19 14.9876 157.611 13.1519 158.453 11.5733C159.296 9.98584 160.506 8.75313 162.085 7.87516C163.664 6.98832 165.561 6.5449 167.779 6.5449C169.996 6.5449 171.893 6.98832 173.472 7.87516C175.051 8.75313 176.261 9.98584 177.104 11.5733C177.946 13.1519 178.367 14.9876 178.367 17.0806C178.367 19.1735 177.946 21.0137 177.104 22.6012C176.261 24.1798 175.051 25.4125 173.472 26.2993C171.893 27.1773 169.996 27.6163 167.779 27.6163ZM167.832 22.1888C168.453 22.1888 168.989 21.9804 169.441 21.5636C169.894 21.1468 170.244 20.5526 170.492 19.781C170.741 19.0095 170.865 18.0916 170.865 17.0274C170.865 15.9543 170.741 15.0364 170.492 14.2737C170.244 13.5022 169.894 12.908 169.441 12.4912C168.989 12.0744 168.453 11.866 167.832 11.866C167.175 11.866 166.612 12.0744 166.142 12.4912C165.672 12.908 165.313 13.5022 165.065 14.2737C164.816 15.0364 164.692 15.9543 164.692 17.0274C164.692 18.0916 164.816 19.0095 165.065 19.781C165.313 20.5526 165.672 21.1468 166.142 21.5636C166.612 21.9804 167.175 22.1888 167.832 22.1888Z" fill="#078EE6"/>
<path d="M193.532 6.81095V12.132H180.07V6.81095H193.532ZM182.677 1.91558H190.02V20.6723C190.02 20.9561 190.069 21.1955 190.167 21.3906C190.264 21.5769 190.415 21.7188 190.619 21.8163C190.823 21.905 191.085 21.9493 191.404 21.9493C191.626 21.9493 191.883 21.9227 192.175 21.8695C192.477 21.8163 192.699 21.772 192.841 21.7365L193.905 26.8979C193.577 26.9955 193.107 27.1152 192.495 27.2571C191.892 27.399 191.173 27.4921 190.34 27.5365C188.655 27.6251 187.24 27.4522 186.096 27.0177C184.952 26.5742 184.092 25.8781 183.515 24.9291C182.939 23.9802 182.66 22.7918 182.677 21.364V1.91558Z" fill="#151515"/>
<path d="M176.76 25.1934L172.891 28.9696L177.1 33.1483L180.908 29.3411L176.76 25.1934Z" fill="#078EE6"/>
</svg>
