<svg width="234" height="34" viewBox="0 0 234 34" fill="none" xmlns="http://www.w3.org/2000/svg">
<path d="M0 7.1915V0H28.5725V7.1915H18.6845V32.8754H9.88802V7.1915H0Z" fill="#151515"/>
<path d="M40.2985 33.3249C37.666 33.3249 35.3973 32.8219 33.4924 31.816C31.5983 30.7993 30.1376 29.3439 29.1103 27.4497C28.0936 25.5448 27.5853 23.2654 27.5853 20.6114C27.5853 18.0644 28.099 15.8384 29.1263 13.9335C30.1536 12.0286 31.6037 10.5465 33.4764 9.487C35.3491 8.42754 37.5589 7.89781 40.1059 7.89781C41.9679 7.89781 43.6533 8.18675 45.1622 8.76464C46.6711 9.34253 47.9606 10.1826 49.0308 11.2849C50.1009 12.3764 50.9249 13.7034 51.5028 15.2659C52.0806 16.8283 52.3696 18.5887 52.3696 20.5471V22.6019H30.3463V17.7219H44.2152C44.2045 17.0156 44.0225 16.3949 43.6694 15.8598C43.327 15.314 42.8614 14.8913 42.2729 14.5917C41.695 14.2813 41.0369 14.1262 40.2985 14.1262C39.5815 14.1262 38.9234 14.2813 38.3241 14.5917C37.7248 14.8913 37.2433 15.3087 36.8794 15.8438C36.5263 16.3789 36.339 17.0049 36.3176 17.7219V22.9871C36.3176 23.779 36.4835 24.4853 36.8152 25.106C37.1469 25.7267 37.6231 26.2137 38.2438 26.5668C38.8645 26.92 39.6136 27.0965 40.4911 27.0965C41.1011 27.0965 41.6575 27.0109 42.1605 26.8397C42.6742 26.6685 43.1129 26.4223 43.4768 26.1013C43.8406 25.7695 44.1081 25.3736 44.2794 24.9134H52.3696C52.0913 26.6257 51.4332 28.1132 50.3952 29.376C49.3571 30.6281 47.982 31.6019 46.2698 32.2975C44.5683 32.9824 42.5779 33.3249 40.2985 33.3249Z" fill="#151515"/>
<path d="M64.846 19.0061V32.8754H55.9853V8.21886H64.3965V12.9062H64.6533C65.1884 11.3437 66.1301 10.1184 67.4785 9.23016C68.8375 8.34193 70.4213 7.89781 72.2299 7.89781C73.9742 7.89781 75.4884 8.29912 76.7726 9.10174C78.0674 9.89366 79.068 10.9852 79.7743 12.3764C80.4913 13.7677 80.8444 15.3568 80.8337 17.144V32.8754H71.973V19.0061C71.9837 17.7861 71.6734 16.8283 71.042 16.1327C70.4213 15.4371 69.5545 15.0893 68.4416 15.0893C67.7139 15.0893 67.0772 15.2498 66.5314 15.5709C65.9963 15.8812 65.5844 16.3307 65.2954 16.9193C65.0065 17.4972 64.8567 18.1928 64.846 19.0061Z" fill="#151515"/>
<path d="M94.1328 33.1965C92.3778 33.1965 90.7619 32.7363 89.2851 31.816C87.819 30.8956 86.6419 29.4991 85.7537 27.6263C84.8761 25.7535 84.4374 23.3938 84.4374 20.5471C84.4374 17.5721 84.8975 15.1535 85.8179 13.2914C86.7489 11.4293 87.9474 10.0649 89.4135 9.19806C90.8903 8.33122 92.442 7.89781 94.0686 7.89781C95.2885 7.89781 96.3587 8.11184 97.279 8.5399C98.1993 8.95727 98.9698 9.5191 99.5905 10.2254C100.211 10.921 100.682 11.6862 101.003 12.5209H101.131V0H109.992V32.8754H101.196V28.8302H101.003C100.661 29.6649 100.168 30.414 99.5263 31.0775C98.8949 31.7303 98.1244 32.2494 97.2148 32.6346C96.3158 33.0092 95.2885 33.1965 94.1328 33.1965ZM97.4074 26.3902C98.2207 26.3902 98.9163 26.1548 99.4941 25.6839C100.083 25.2024 100.532 24.5281 100.843 23.6613C101.164 22.7838 101.324 21.7457 101.324 20.5471C101.324 19.3272 101.164 18.2837 100.843 17.4169C100.532 16.5394 100.083 15.8705 99.4941 15.4104C98.9163 14.9395 98.2207 14.704 97.4074 14.704C96.5941 14.704 95.8985 14.9395 95.3206 15.4104C94.7535 15.8705 94.3147 16.5394 94.0044 17.4169C93.7047 18.2837 93.5549 19.3272 93.5549 20.5471C93.5549 21.7671 93.7047 22.8159 94.0044 23.6934C94.3147 24.5603 94.7535 25.2291 95.3206 25.7C95.8985 26.1601 96.5941 26.3902 97.4074 26.3902Z" fill="#151515"/>
<path d="M126.156 33.3249C123.524 33.3249 121.255 32.8219 119.35 31.816C117.456 30.7993 115.996 29.3439 114.968 27.4497C113.952 25.5448 113.443 23.2654 113.443 20.6114C113.443 18.0644 113.957 15.8384 114.984 13.9335C116.012 12.0286 117.462 10.5465 119.334 9.487C121.207 8.42754 123.417 7.89781 125.964 7.89781C127.826 7.89781 129.511 8.18675 131.02 8.76464C132.529 9.34253 133.819 10.1826 134.889 11.2849C135.959 12.3764 136.783 13.7034 137.361 15.2659C137.939 16.8283 138.228 18.5887 138.228 20.5471V22.6019H116.204V17.7219H130.073C130.062 17.0156 129.881 16.3949 129.527 15.8598C129.185 15.314 128.719 14.8913 128.131 14.5917C127.553 14.2813 126.895 14.1262 126.156 14.1262C125.439 14.1262 124.781 14.2813 124.182 14.5917C123.583 14.8913 123.101 15.3087 122.737 15.8438C122.384 16.3789 122.197 17.0049 122.176 17.7219V22.9871C122.176 23.779 122.341 24.4853 122.673 25.106C123.005 25.7267 123.481 26.2137 124.102 26.5668C124.722 26.92 125.472 27.0965 126.349 27.0965C126.959 27.0965 127.516 27.0109 128.018 26.8397C128.532 26.6685 128.971 26.4223 129.335 26.1013C129.699 25.7695 129.966 25.3736 130.137 24.9134H138.228C137.949 26.6257 137.291 28.1132 136.253 29.376C135.215 30.6281 133.84 31.6019 132.128 32.2975C130.426 32.9824 128.436 33.3249 126.156 33.3249Z" fill="#151515"/>
<path d="M141.843 32.8754V8.21886H150.447V12.9062H150.704C151.153 11.1725 151.865 9.90436 152.839 9.10174C153.823 8.29912 154.974 7.89781 156.29 7.89781C156.675 7.89781 157.055 7.92991 157.43 7.99412C157.815 8.04763 158.184 8.12789 158.537 8.23491V15.7956C158.099 15.6458 157.558 15.5334 156.916 15.4585C156.274 15.3836 155.723 15.3461 155.263 15.3461C154.396 15.3461 153.615 15.5441 152.919 15.9401C152.234 16.3253 151.694 16.8711 151.298 17.5774C150.902 18.273 150.704 19.0917 150.704 20.0335V32.8754H141.843Z" fill="#151515"/>
<path d="M161.314 32.8754V0H170.175V12.5209H170.303C170.624 11.6862 171.095 10.921 171.716 10.2254C172.337 9.5191 173.107 8.95727 174.027 8.5399C174.948 8.11184 176.018 7.89781 177.238 7.89781C178.864 7.89781 180.411 8.33122 181.877 9.19806C183.354 10.0649 184.552 11.4293 185.473 13.2914C186.404 15.1535 186.869 17.5721 186.869 20.5471C186.869 23.3938 186.425 25.7535 185.537 27.6263C184.659 29.4991 183.482 30.8956 182.005 31.816C180.539 32.7363 178.929 33.1965 177.174 33.1965C176.018 33.1965 174.985 33.0092 174.076 32.6346C173.177 32.2494 172.406 31.7303 171.764 31.0775C171.133 30.414 170.646 29.6649 170.303 28.8302H170.111V32.8754H161.314ZM169.982 20.5471C169.982 21.7457 170.138 22.7838 170.448 23.6613C170.769 24.5281 171.218 25.2024 171.796 25.6839C172.385 26.1548 173.086 26.3902 173.899 26.3902C174.712 26.3902 175.403 26.1601 175.97 25.7C176.548 25.2291 176.986 24.5603 177.286 23.6934C177.596 22.8159 177.752 21.7671 177.752 20.5471C177.752 19.3272 177.596 18.2837 177.286 17.4169C176.986 16.5394 176.548 15.8705 175.97 15.4104C175.403 14.9395 174.712 14.704 173.899 14.704C173.086 14.704 172.385 14.9395 171.796 15.4104C171.218 15.8705 170.769 16.5394 170.448 17.4169C170.138 18.2837 169.982 19.3272 169.982 20.5471Z" fill="#151515"/>
<path d="M202.456 33.3249C199.78 33.3249 197.49 32.7952 195.585 31.7357C193.68 30.6655 192.22 29.178 191.203 27.2731C190.186 25.3575 189.678 23.1369 189.678 20.6114C189.678 18.0858 190.186 15.8705 191.203 13.9656C192.22 12.05 193.68 10.5625 195.585 9.50305C197.49 8.43289 199.78 7.89781 202.456 7.89781C205.131 7.89781 207.421 8.43289 209.326 9.50305C211.231 10.5625 212.691 12.05 213.708 13.9656C214.725 15.8705 215.233 18.0858 215.233 20.6114C215.233 23.1369 214.725 25.3575 213.708 27.2731C212.691 29.178 211.231 30.6655 209.326 31.7357C207.421 32.7952 205.131 33.3249 202.456 33.3249ZM202.52 26.7755C203.269 26.7755 203.916 26.524 204.462 26.021C205.008 25.5181 205.43 24.801 205.73 23.87C206.03 22.939 206.18 21.8313 206.18 20.5471C206.18 19.2522 206.03 18.1446 205.73 17.2243C205.43 16.2932 205.008 15.5762 204.462 15.0733C203.916 14.5703 203.269 14.3188 202.52 14.3188C201.728 14.3188 201.048 14.5703 200.481 15.0733C199.914 15.5762 199.481 16.2932 199.181 17.2243C198.881 18.1446 198.731 19.2522 198.731 20.5471C198.731 21.8313 198.881 22.939 199.181 23.87C199.481 24.801 199.914 25.5181 200.481 26.021C201.048 26.524 201.728 26.7755 202.52 26.7755Z" fill="#078EE6"/>
<path d="M233.532 8.21886V14.6398H217.288V8.21886H233.532ZM220.434 2.31155H229.294V24.9455C229.294 25.288 229.353 25.5769 229.471 25.8123C229.589 26.0371 229.771 26.2083 230.017 26.326C230.263 26.433 230.579 26.4865 230.964 26.4865C231.231 26.4865 231.542 26.4544 231.895 26.3902C232.259 26.326 232.526 26.2725 232.697 26.2297L233.982 32.4581C233.586 32.5758 233.018 32.7203 232.28 32.8915C231.552 33.0627 230.686 33.1751 229.68 33.2286C227.646 33.3356 225.94 33.1269 224.559 32.6025C223.179 32.0675 222.141 31.2274 221.445 30.0823C220.749 28.9372 220.412 27.5032 220.434 25.7802V2.31155Z" fill="#151515"/>
</svg>
