<svg width="153" height="33" viewBox="0 0 153 33" fill="none" xmlns="http://www.w3.org/2000/svg">
<g clip-path="url(#clip0_6275_35038)">
<path fill-rule="evenodd" clip-rule="evenodd" d="M28.6057 16.6784C28.595 16.3944 28.5961 16.111 28.5955 15.8374C28.5936 14.8288 28.5937 13.8204 28.5937 12.8118H27.1932L27.2269 26.5873C27.2364 30.4692 24.6864 32.9842 20.7585 32.9842C16.8114 32.9842 14.2969 30.4362 14.2969 26.5542V12.8118H12.9301V26.5198C12.9301 30.4218 10.3769 32.9431 6.42688 32.9431C2.48973 32.9431 0 30.3838 0 26.5198V6.40927C0 2.53757 2.56729 0.0776555 6.45612 0.000524511L6.49339 0L28.9345 0.0413848C37.0438 0.056353 41.517 4.73245 41.517 12.6812C41.517 13.8791 41.4979 15.0953 41.5195 16.2942C41.533 16.5807 41.5336 16.8674 41.5345 17.1447C41.5377 18.1541 41.5373 19.164 41.5373 20.1738H42.9374L42.9039 6.39835C42.8945 2.51749 45.4366 0.00141016 49.3655 0.00141016C53.3111 0.00141016 55.834 2.54796 55.834 6.43144V20.1738H57.2009V6.47283C57.2009 2.56891 59.7492 0.0427948 63.7042 0.0427948C67.6441 0.0427948 70.1238 2.61135 70.1238 6.47283V26.5762C70.1238 30.4678 67.5282 32.9929 63.5933 32.9855L41.1894 32.9443C33.0804 32.9292 28.6071 28.253 28.6071 20.3041C28.6071 19.0994 28.6225 17.8833 28.6057 16.6784Z" fill="#373435"/>
<path fill-rule="evenodd" clip-rule="evenodd" d="M63.6 29.6272C65.6846 29.6309 66.7227 28.5736 66.7227 26.5772V6.47389C66.7227 4.42903 65.719 3.40309 63.7046 3.40309C61.6341 3.40309 60.6027 4.42922 60.6027 6.47389V23.534H55.5348C53.4646 23.534 52.4332 22.5016 52.4332 20.4293V6.4325C52.4332 4.38783 51.4083 3.36205 49.3656 3.36205C47.3233 3.36205 46.3009 4.37392 46.3056 6.39112L46.3476 23.534H41.2591C39.1748 23.534 38.1361 22.5016 38.1361 20.4293C38.1361 12.516 38.1158 20.595 38.1158 12.6826C38.1158 6.49306 35.0558 3.40167 28.9284 3.40167L6.5247 3.36047C4.44045 3.40167 3.40186 4.42074 3.40186 6.4103V26.5209C3.40186 28.5655 4.41261 29.5843 6.427 29.5843C8.49044 29.5843 9.52903 28.5655 9.52903 26.5209V9.45363H14.5898C16.66 9.45363 17.6987 10.4931 17.6987 12.5584V26.5552C17.6987 28.6001 18.7164 29.6257 20.7588 29.6257C22.8012 29.6257 23.8259 28.6138 23.8259 26.5966L23.784 9.45363H28.8656C30.9499 9.45363 31.9955 10.4931 31.9955 12.5584C31.9955 20.4712 32.0089 12.3925 32.0089 20.3051C32.0089 26.4944 35.0689 29.5744 41.1961 29.5859L63.6 29.6272Z" fill="#FFD525"/>
<path fill-rule="evenodd" clip-rule="evenodd" d="M98.9972 14.3819H95.4634L94.4592 6.63501L91.1706 14.3819H89.768L86.6291 6.63501L85.4749 14.3819H81.9414L84.2496 0.925568H87.7627L90.5136 8.10773L93.4208 0.925568H96.9546L98.9972 14.3819ZM114.207 14.3819H110.428L109.55 12.0417H104.664L103.728 14.3819H99.9905L105.223 0.925568H109.084L114.207 14.3819ZM108.611 9.37861L107.129 5.08147L105.628 9.37861H108.611ZM128.508 14.3819H123.933L119.337 8.55167V14.3819H115.803V0.925568H119.337V6.47019L123.647 0.925568H127.997L122.605 7.29414L128.508 14.3819ZM137.859 14.3819H130.117V0.925568H137.859V3.83084H133.651V6.15074H137.635V9.05582H133.651V11.477H137.859V14.3819Z" fill="#373435"/>
<path fill-rule="evenodd" clip-rule="evenodd" d="M146.12 2.91959C146.12 3.38573 145.96 3.77542 145.636 4.09206C145.316 4.41167 144.921 4.57014 144.452 4.57014C143.987 4.57014 143.595 4.40867 143.275 4.08887C142.951 3.76927 142.791 3.37955 142.791 2.91959C142.791 2.46279 142.951 2.07609 143.275 1.75964C143.595 1.43984 143.987 1.28152 144.452 1.28152C144.915 1.28152 145.309 1.43984 145.633 1.75964C145.957 2.07609 146.12 2.46279 146.12 2.91959ZM145.954 14.3811H142.976V6.10484H145.954V14.3811ZM152.994 8.49801H151.311V14.3811H148.333V8.49801H147.353V6.10484H148.333V3.6201H151.311V6.10484H152.994V8.49801Z" fill="#373435"/>
<path fill-rule="evenodd" clip-rule="evenodd" d="M102.647 16.989L98.2992 30.4453H94.6871L92.2055 22.6479L89.6011 30.4453H85.9991L81.9414 16.989H85.6418L88.0044 25.6842L90.8878 16.989H93.6998L96.3825 25.6842L98.9562 16.989H102.647ZM132.359 30.4453H127.967L124.597 25.3008V30.4453H121.063V16.989H126.565C128.175 16.989 129.363 17.4666 130.136 18.4214C130.759 19.1913 131.072 20.0959 131.072 21.1347C131.072 22.3285 130.714 23.2799 129.996 23.9896C129.537 24.4436 128.903 24.7595 128.1 24.9377L132.359 30.4453ZM127.396 21.3298C127.396 20.8492 127.218 20.4456 126.864 20.1162C126.534 19.8066 125.996 19.6521 125.257 19.6521H124.597V23.0211H125.257C126.003 23.0211 126.541 22.8663 126.864 22.5572C127.218 22.2209 127.396 21.8108 127.396 21.3298ZM146.598 30.4453H142.023L137.427 24.6149V30.4453H133.893V16.989H137.427V22.5338L141.737 16.989H146.088L140.695 23.3572L146.598 30.4453Z" fill="#373435"/>
<path fill-rule="evenodd" clip-rule="evenodd" d="M117.677 21.8681L118.491 21.177C118.26 20.4478 117.609 18.9241 116.792 18.2277C116.43 18.2794 116.166 18.4687 115.817 18.5913L114.842 18.9298C113.95 18.3599 113.653 18.1386 112.588 17.6328L112.273 15.576C111.026 15.2108 109.814 15.4321 108.815 15.5144L108.468 17.5684C107.69 18.0171 107.438 17.8138 106.198 18.8581L104.262 18.0798C103.769 18.4184 102.442 20.3884 102.527 20.9688C102.592 21.2321 103.468 21.8093 103.709 22.0004C104.344 22.5021 103.949 22.4518 103.945 23.5909C103.944 24.041 104.003 24.3046 104.03 24.7002C104.061 25.1644 103.134 25.5845 102.43 26.1782C102.482 26.8704 103.399 28.4509 104.054 29.163C104.671 29.1281 105.72 28.4274 106.072 28.5319C106.233 28.5796 106.85 29.0836 107.098 29.2306C107.537 29.4914 107.948 29.6372 108.402 29.8482C108.373 30.131 108.549 31.5306 108.645 31.8501C109.725 32.2568 111.273 31.9537 112.089 31.9318C112.283 31.2718 112.242 30.4091 112.496 29.7922C113.452 29.6473 114.288 28.8432 114.687 28.6404L116.729 29.3254C117.548 28.3116 118.009 27.6646 118.467 26.3731L116.856 25.0761C116.841 24.6757 116.965 24.1365 116.965 23.6702C116.966 23.3292 116.847 22.6087 116.936 22.3994L117.677 21.8681ZM112.25 19.9841C114.33 20.9713 115.206 23.437 114.207 25.4915C113.207 27.5463 110.71 28.4114 108.63 27.4242C106.55 26.437 105.674 23.9713 106.673 21.9168C107.673 19.862 110.17 18.9969 112.25 19.9841Z" fill="#FFD525"/>
<path fill-rule="evenodd" clip-rule="evenodd" d="M74.624 0H77.6727V32.9848H74.624V0Z" fill="#373435"/>
</g>
<defs>
<clipPath id="clip0_6275_35038">
<rect width="153" height="33" fill="white"/>
</clipPath>
</defs>
</svg>
